<svg xmlns="http://www.w3.org/2000/svg" width="3600" height="2400" fill="none"><circle cx="1253.5" cy="1555.5" r="171.5" fill="#ff4141" style="transform:none;transform-origin:1253.5px 1555.5px"/><circle cx="2429.5" cy="863.5" r="171.5" fill="#91D8EC" style="transform:none;transform-origin:2429.5px 863.5px"/><path fill="#FFE54D" d="M1343.41 691.738c.83-.279 1.74.014 2.26.723l134.71 186.213c.51.696.51 1.637.01 2.336l-134.66 188.22c-.5.7-1.41 1-2.24.74l-217.9-69.9a2 2 0 0 1-1.39-1.905l-.05-231.426c0-.859.55-1.623 1.36-1.896l217.9-73.105Z" style="transform:none;transform-origin:1302.46px 880.848px" transform-origin="1302.4569091796875px 880.8480834960938px"/><path fill="#FF4141" d="M2995.41 551.738c.83-.279 1.74.014 2.26.723l134.71 186.213c.51.696.51 1.637.01 2.336l-134.66 188.217a2 2 0 0 1-2.24.74l-217.9-69.898a1.997 1.997 0 0 1-1.39-1.904l-.05-231.426c0-.859.55-1.623 1.36-1.896l217.9-73.105Z" style="transform:none;transform-origin:2954.46px 740.848px" transform-origin="2954.456787109375px 740.8482360839844px"/><path fill="#16AB59" d="M931.18 1031.26c.125-1.52 1.847-2.35 3.114-1.49l289.926 196.2c1.27.86 1.13 2.79-.26 3.46l-318.635 152.69c-1.393.67-2.984-.43-2.857-1.97l28.712-348.89Z" style="transform:none;transform-origin:1063.78px 1205.87px" transform-origin="1063.7770080566406px 1205.8717041015625px"/><path fill="#FFBAC4" d="M2387.89 1409.19c.8-1.09 2.42-1.09 3.22 0l41.43 56.31c.48.65 1.3.95 2.09.76l68.23-16.73c1.32-.32 2.57.73 2.48 2.08l-4.76 69.5c-.06.81.39 1.58 1.12 1.93l63.07 30.67c1.23.59 1.51 2.21.56 3.19l-48.68 50.2c-.57.58-.72 1.46-.39 2.21l28.44 63.68a2 2 0 0 1-1.62 2.8l-69.87 7.42c-.81.09-1.48.66-1.71 1.43l-19.5 66.95a2.006 2.006 0 0 1-3.03 1.11l-58.36-38.87c-.67-.45-1.55-.45-2.22 0l-58.36 38.87c-1.12.74-2.65.19-3.03-1.11l-19.5-66.95a2.02 2.02 0 0 0-1.71-1.43l-69.87-7.42a2 2 0 0 1-1.62-2.8l28.44-63.68c.33-.75.18-1.63-.39-2.21l-48.68-50.2c-.95-.98-.67-2.6.56-3.19l63.07-30.67c.73-.35 1.18-1.12 1.12-1.93l-4.76-69.5a2.008 2.008 0 0 1 2.48-2.08l68.23 16.73c.79.19 1.61-.11 2.09-.76l41.43-56.31Z" style="transform:none;transform-origin:2389.5px 1580.7px" transform-origin="2389.5px 1580.702392578125px"/><path fill="#FFE54D" fill-rule="evenodd" d="M2515.23 1069.99a1.991 1.991 0 0 1 2.31-1.63l311.85 53.75c1.08.19 1.81 1.22 1.63 2.31l-53.89 311.95a2.004 2.004 0 0 1-2.31 1.63l-311.85-53.76a1.991 1.991 0 0 1-1.63-2.31l53.89-311.94Z" clip-rule="evenodd" style="transform:none;transform-origin:2646.18px 1253.18px" transform-origin="2646.1787109375px 1253.1798706054688px"/><circle cx="738" cy="796" r="156" fill="#2727E6" style="transform:none;transform-origin:738px 796px"/><path fill="#ADE4F7" d="M551.887 1037.2a2 2 0 0 1 3.226 0l42.399 57.79c.479.66 1.304.96 2.09.76l69.833-17.17a2.003 2.003 0 0 1 2.473 2.08l-4.871 71.35c-.056.82.387 1.58 1.119 1.94l64.565 31.48c1.221.59 1.506 2.21.561 3.19l-49.839 51.53a2.01 2.01 0 0 0-.389 2.21l29.11 65.38a1.998 1.998 0 0 1-1.615 2.8l-71.513 7.62c-.807.09-1.482.65-1.708 1.43l-19.964 68.72a2 2 0 0 1-3.031 1.11l-59.722-39.89a1.997 1.997 0 0 0-2.222 0l-59.722 39.89a2 2 0 0 1-3.031-1.11l-19.964-68.72a2.003 2.003 0 0 0-1.708-1.43l-71.513-7.62a1.998 1.998 0 0 1-1.615-2.8l29.11-65.38a2.01 2.01 0 0 0-.389-2.21l-49.839-51.53c-.945-.98-.66-2.6.561-3.19l64.565-31.48a2.003 2.003 0 0 0 1.119-1.94l-4.871-71.35a2.003 2.003 0 0 1 2.473-2.08l69.833 17.17c.786.2 1.611-.1 2.09-.76l42.399-57.79Z" style="transform:none;transform-origin:553.5px 1213.07px" transform-origin="553.5000152587891px 1213.0696411132812px"/><path fill="#16AB59" d="M2940.81 1554.87a2.01 2.01 0 0 1 2.38 0l176.65 130.06c.69.51.98 1.4.72 2.22l-67.49 210.46c-.26.83-1.03 1.39-1.9 1.39h-218.34c-.87 0-1.64-.56-1.9-1.39l-67.49-210.46c-.26-.82.03-1.71.72-2.22l176.65-130.06Z" style="transform:none;transform-origin:2942px 1726.74px" transform-origin="2942px 1726.739990234375px"/><path fill="#FFBAC4" fill-rule="evenodd" d="M644.908 1487a1.997 1.997 0 0 1 2.221-1.75l276.411 32.56a1.997 1.997 0 0 1 1.751 2.22l-32.674 276.5a2.003 2.003 0 0 1-2.221 1.75l-276.41-32.56a2.003 2.003 0 0 1-1.751-2.22l32.673-276.5Z" clip-rule="evenodd" style="transform:none;transform-origin:768.763px 1641.76px" transform-origin="768.7630004882812px 1641.7649536132812px"/><path fill="#2727E6" d="M3316.58 1155.28c1.49.35 2.05 2.18 1.01 3.3l-232.86 252.41c-1.05 1.14-2.93.71-3.38-.77l-101.33-331.47c-.45-1.48.87-2.89 2.37-2.53l334.19 79.06Z" style="transform:none;transform-origin:3149.03px 1243.9px" transform-origin="3149.0267333984375px 1243.9006958007812px"/></svg>